<svg t="1698073613603" class="icon" viewBox="0 0 2583 1024" version="1.1" xmlns="http://www.w3.org/2000/svg" p-id="2767" width="200" height="200"><path d="M1447.186963 369.540741h-32.256v35.214222l26.500741 0.350815zM1502.189037 478.416593c1.223111-1.450667 1.829926-5.376 1.829926-11.766519v-22.319407h-32.777482l-8.893629 37.309629 31.55437-0.872296c4.304593-0.113778 7.063704-0.900741 8.286815-2.351407zM1414.930963 480.768l11.681185 0.170667 8.372148-36.608h-20.053333zM1504.018963 369.540741h-21.096296l-5.925926 35.565037 27.022222-0.350815zM2002.270815 390.987852h190.928592c4.295111 0 7.452444-0.379259 9.481482-1.156741s3.745185-2.171259 5.138963-4.190815c1.393778-2.019556 2.085926-5.470815 2.085926-10.344296v-15.341037h-207.634963v31.032889z" fill="#F96514" p-id="2768"></path><path d="M2281.851259 190.369185H487.68c100.437333 51.2 163.726222 154.358519 163.858963 267.093334-0.028444 79.758222-31.829333 156.22637-88.348444 212.498962a302.096119 302.096119 0 0 1-213.248 88.026075c-34.531556-0.075852-68.788148-6.07763-101.300149-17.739852a301.230459 301.230459 0 0 0 168.324741 51.133629h1864.884148c166.570667 0 301.596444-134.542222 301.596445-300.534518s-135.025778-300.47763-301.596445-300.47763z m-328.400592 132.276148h305.265777v63.383704c0 6.817185-1.052444 13.198222-3.147851 19.143111-2.095407 5.944889-5.650963 11.282963-10.666667 16.023704-5.015704 4.731259-15.559111 7.10163-31.649185 7.101629h-259.802074V322.645333z m0 122.386963h305.265777V571.06963h-48.810666v-88.737186h-207.634963v88.737186h-48.810667V445.032296z m-360.002371-61.714963h29.11763c7.670519 0 12.724148-1.109333 15.17037-3.328 2.436741-2.218667 4.589037-5.025185 6.447408-8.410074l27.373037-51.361185h156.378074l24.576 46.373926c3.365926 6.580148 6.504296 10.789926 9.415111 12.61037 2.901333 1.820444 8.485926 2.730667 16.734815 2.730667h22.66074v37.30963h-41.140148c-11.273481 0-19.465481-1.194667-24.585481-3.574519-5.12-2.379852-9.765926-7.120593-13.947259-14.212741l-26.149926-43.927703h-87.343408l-27.894518 45.330963c-4.41837 7.092148-9.528889 11.823407-15.341037 14.21274-5.812148 2.379852-13.596444 3.574519-23.362371 3.574519h-48.118518v-37.328593z m-716.344889-18.128592h15.691852c7.898074 0 13.018074-1.915259 15.341037-5.75526l22.13926-37.309629h193.687703l23.182222 33.991111c2.209185 3.375407 4.67437 5.726815 7.405038 7.063704 2.730667 1.336889 8.391111 2.000593 17.000296 2.000592h17.607111v37.30963h-25.448296c-18.716444 0-30.65363-1.422222-35.830519-4.266667-5.176889-2.844444-9.908148-7.177481-14.212741-12.989629l-19.351703-25.799112H959.744l-14.819556 23.362371c-4.304593 6.741333-8.51437 11.444148-12.638814 14.117926-4.124444 2.673778-7.727407 4.266667-10.808889 4.797629-3.081481 0.521481-7.755852 0.786963-14.032593 0.786963h-30.331259v-37.309629z m313.97926 275.446518H877.103407v-37.309629h131.100445v-87.694223h-125.345185v-35.915851h125.345185v-28.937482h-125.345185v-37.30963h298.458074v37.30963H1053.184v28.937482h130.929778v35.915851H1053.184v87.694223h137.898667v37.309629z m-303.511704-114.536296h46.544593c1.630815 6.144 3.053037 10.638222 4.266666 13.482667 1.223111 2.844444 2.967704 5.432889 5.233778 7.765333 2.266074 2.332444 7.642074 3.498667 16.128 3.498667h28.937481v35.915851h-45.150814c-8.599704 0-16.184889-0.986074-22.755556-2.967703-6.570667-1.972148-12.202667-6.475852-16.914963-13.511111-4.702815-7.035259-7.755852-13.340444-9.149629-18.915556l-7.139556-25.268148z m290.958222 0c-2.787556 11.387259-5.233778 20.195556-7.319704 26.415407-2.095407 6.219852-5.290667 12.496593-9.585777 18.830223-4.304593 6.33363-9.737481 10.486519-16.298667 12.468148-6.570667 1.98163-14.14637 2.967704-22.746074 2.967703h-41.841778v-35.915851h25.799111c8.372148 0 13.833481-1.308444 16.384-3.925334 2.550519-2.616889 4.181333-5.063111 4.882963-7.348148l4.361482-13.482667h46.364444z m173.293037 120.291556h-40.798815v-125.345186h-25.277629v78.279111c0 6.039704-0.644741 12.373333-1.943704 19.000889-1.298963 6.627556-4.41837 12.288-9.358222 17.000297-4.939852 4.702815-13.530074 7.063704-25.770667 7.063703h-21.333333v-40.798814h9.585778c3.365926 0 5.290667-1.450667 5.755259-4.352 0.464593-2.901333 0.70163-7.025778 0.70163-12.363852v-267.282963h42.363259v96.929185h23.883852V317.591704h38.181926v96.929185h17.436444v39.054222h-79.492741v30.160593h66.076445v162.654815z m195.432297-38.181926h-38.703408v35.915851h-44.980148v-35.915851h-99.716741v-39.054223h19.873185v-19.408592c11.273481 0.464593 18.157037-0.758519 20.660149-3.669334 2.49363-2.910815 4.389926-6.181926 5.669925-9.79437l5.233778-15.388444h-41.140148V328.751407h24.405333l10.979556-11.159703h48.810667v11.159703h88.035555v143.890963c0 6.997333-0.493037 12.999111-1.469629 18.005334-0.976593 5.015704-2.958222 9.709037-5.954371 14.070518-2.986667 4.370963-7.793778 8.163556-14.40237 11.368297-6.618074 3.204741-14.40237 4.807111-23.371852 4.807111h-48.071111l-6.97837 30.947555c-1.630815 6.874074-2.901333 10.723556-3.830519 11.538963l-5.755259 5.764741h27.022222v-38.874074h44.980148v38.874074h38.703408v39.063704z m354.076444-61.013334h-202.752l-42.363259 55.959704h186.187852c4.181333 0 6.912-1.488593 8.192-4.456296 1.28-2.967704 1.915259-8.277333 1.915259-15.909926v-13.454222h48.810666v36.788148c-0.113778 22.897778-12.98963 34.341926-38.618074 34.341926h-269.786074v-31.032889l52.072297-62.236445h-53.295408v-37.309629h309.617778v37.309629z m0.692148-65.554963h-308.574815v-37.309629h308.574815v37.309629z m357.916445 161.953185h-55.959704c-12.202667 0-20.660148-1.28-25.362963-3.84-4.702815-2.56-8.922074-5.755259-12.638815-9.585777l-59.97037-61.013334-52.821334 57.874963c-10.107259 11.036444-22.319407 16.564148-36.608 16.564148h-65.725629v-37.309629h46.373926c9.528889 0 17.720889-3.77363 24.576-11.330371l60.491852-65.374814v-33.46963h48.810666v33.46963l62.132148 62.236444c4.446815 4.532148 8.106667 7.499852 10.970074 8.89363 2.863407 1.393778 7.632593 2.095407 14.307556 2.095407h41.424593v40.789333z" fill="#F96514" p-id="2769"></path><path d="M101.300148 558.203259l-73.661629 127.61126-27.638519 47.834074 155.249778 25.827555 73.661629-127.611259-127.611259-73.66163z m0 0" fill="#FF6325" p-id="2770"></path><path d="M228.911407 631.864889l-73.661629 127.611259 100.001185 121.552593 27.600593-47.900445 73.690074-127.573333-127.630223-73.690074z m0 0" fill="#ED2000" p-id="2771"></path><path d="M708.958815 685.814519L635.259259 558.203259l-127.611259 73.66163 73.690074 127.611259 155.211852-25.827555-27.591111-47.834074z m0 0" fill="#CE0000" p-id="2772"></path><path d="M507.648 631.864889L380.046222 705.564444 453.707852 833.137778l27.638518 47.900444 100.001186-121.552592-73.699556-127.620741z m0 0" fill="#E30000" p-id="2773"></path><path d="M368.260741 763.041185c-89.02163 0.009481-172.999111-41.358222-227.252148-111.947852a285.874252 285.874252 0 0 1-60.103112-175.407407 287.337244 287.337244 0 0 1 84.15763-203.207111A287.374222 287.374222 0 0 1 368.260741 188.302222c1.232593 0 2.427259 0.227556 3.659852 0.227556 158.644148 1.005037 286.435556 130.436741 285.430518 289.080889-1.014519 158.644148-130.436741 286.435556-289.09037 285.430518m151.466666-582.096592A329.78963 329.78963 0 0 0 368.232296 144.118519c-183.115852 0-331.529481 148.451556-331.529481 331.567407 0 144.014222 91.941926 266.192593 220.169481 311.988148A331.602489 331.602489 0 0 0 368.260741 807.253333c183.10637-0.018963 331.529481-148.461037 331.529481-331.567407 0-124.245333-69.546667-238.032593-180.100741-294.731852" fill="#FFA400" p-id="2774"></path><path d="M368.260741 696.727704c122.074074 0 221.041778-98.967704 221.041778-221.041778S490.344296 254.644148 368.260741 254.644148 147.218963 353.60237 147.218963 475.685926 246.186667 696.727704 368.260741 696.727704m0 66.313481c-158.701037 0-287.355259-128.654222-287.35526-287.355259S209.559704 188.330667 368.260741 188.330667 655.616 316.984889 655.616 475.685926 526.971259 763.041185 368.260741 763.041185" fill="#FFFE00" p-id="2775"></path><path d="M368.260741 652.515556c63.184593 0 121.562074-33.697185 153.15437-88.414815 31.592296-54.71763 31.592296-122.130963 0-176.839111-31.592296-54.71763-89.969778-88.414815-153.15437-88.414815-97.659259 0.009481-176.820148 79.17037-176.820148 176.829629S270.610963 652.515556 368.260741 652.515556m0 44.212148c-122.074074 0-221.041778-98.967704-221.041778-221.041778S246.186667 254.644148 368.260741 254.644148 589.312 353.60237 589.312 475.685926 490.344296 696.727704 368.260741 696.727704" fill="#FFD500" p-id="2776"></path><path d="M312.983704 512.512c33.317926 0.625778 64.369778-16.791704 81.199407-45.539556 16.839111-28.747852 16.839111-64.350815 0-93.108148-16.82963-28.73837-47.881481-46.155852-81.199407-45.530074-50.185481 0.938667-90.377481 41.898667-90.377482 92.09363s40.192 91.145481 90.377482 92.084148m55.277037 140.003556c-63.175111 0.009481-121.552593-33.687704-153.144889-88.395852-31.592296-54.708148-31.601778-122.121481-0.018963-176.839111 31.582815-54.71763 89.960296-88.424296 153.135407-88.433778 97.659259 0.009481 176.82963 79.17037 176.82963 176.829629s-79.17037 176.82963-176.82963 176.82963" fill="#FFF200" p-id="2777"></path><path d="M220.880593 420.408889c0 50.868148 41.234963 92.103111 92.103111 92.103111s92.103111-41.234963 92.103111-92.103111-41.234963-92.103111-92.103111-92.103111c-50.868148-0.009481-92.103111 41.234963-92.103111 92.103111" fill="#FFFFFF" p-id="2778"></path></svg>